<svg xmlns="http://www.w3.org/2000/svg" width="720" height="440" viewBox="0 0 720 440" role="img" aria-label="Deck library screenshot placeholder">
  <rect width="720" height="440" rx="14" fill="#16181d"/>
  <rect x="0" y="0" width="720" height="56" rx="14" fill="#1f2937"/>
  <rect x="0" y="28" width="720" height="28" fill="#1f2937"/>
  <circle cx="28" cy="28" r="6" fill="#ef4444"/>
  <circle cx="48" cy="28" r="6" fill="#f59e0b"/>
  <circle cx="68" cy="28" r="6" fill="#22c55e"/>
  <text x="360" y="33" text-anchor="middle" font-family="Segoe UI, Helvetica, Arial, sans-serif" font-size="14" fill="#9ca3af">QuizForge — Study decks</text>
  <!-- upload card -->
  <rect x="40" y="88" width="640" height="64" rx="10" fill="#1f242c" stroke="#374151"/>
  <rect x="56" y="108" width="200" height="24" rx="6" fill="#11151b" stroke="#374151"/>
  <text x="70" y="124" font-family="Segoe UI, Arial, sans-serif" font-size="12" fill="#6b7280">Choose PDF…</text>
  <rect x="540" y="106" width="124" height="28" rx="8" fill="#4f86f7"/>
  <text x="602" y="124" text-anchor="middle" font-family="Segoe UI, Arial, sans-serif" font-size="12" fill="#ffffff" font-weight="600">Generate deck</text>
  <!-- deck rows -->
  <g font-family="Segoe UI, Arial, sans-serif">
    <rect x="40" y="176" width="640" height="56" rx="10" fill="#1f242c" stroke="#374151"/>
    <text x="56" y="200" font-size="14" fill="#e5e7eb" font-weight="600">PCA Exam Review (built-in)</text>
    <text x="56" y="218" font-size="11" fill="#9ca3af">built-in · 277 questions · shared</text>
    <rect x="600" y="190" width="64" height="28" rx="8" fill="#4f86f7"/>
    <text x="632" y="208" text-anchor="middle" font-size="12" fill="#fff" font-weight="600">Study</text>

    <rect x="40" y="244" width="640" height="56" rx="10" fill="#1f242c" stroke="#374151"/>
    <text x="56" y="268" font-size="14" fill="#e5e7eb" font-weight="600">Security Engineer notes</text>
    <text x="56" y="286" font-size="11" fill="#9ca3af">100 pages · generating… 6/10 sections</text>
    <rect x="56" y="290" width="220" height="5" rx="2.5" fill="#2b3340"/>
    <rect x="56" y="290" width="132" height="5" rx="2.5" fill="#4f86f7"/>

    <rect x="40" y="312" width="640" height="56" rx="10" fill="#1f242c" stroke="#374151"/>
    <text x="56" y="336" font-size="14" fill="#e5e7eb" font-weight="600">Kubernetes deep-dive</text>
    <text x="56" y="354" font-size="11" fill="#9ca3af">42 pages · 38 questions</text>
    <rect x="600" y="326" width="64" height="28" rx="8" fill="#4f86f7"/>
    <text x="632" y="344" text-anchor="middle" font-size="12" fill="#fff" font-weight="600">Study</text>
  </g>
  <text x="360" y="408" text-anchor="middle" font-family="Segoe UI, Arial, sans-serif" font-size="12" fill="#4b5563">placeholder — replace with a real screenshot (docs/screenshots/deck-list.png)</text>
</svg>
