<svg xmlns="http://www.w3.org/2000/svg" width="720" height="440" viewBox="0 0 720 440" role="img" aria-label="Study view screenshot placeholder">
  <rect width="720" height="440" rx="14" fill="#16181d"/>
  <!-- side panel -->
  <rect x="0" y="0" width="200" height="440" fill="#14171c"/>
  <text x="20" y="36" font-family="Segoe UI, Arial, sans-serif" font-size="14" fill="#e5e7eb" font-weight="700">PCA Exam Review</text>
  <g font-family="Segoe UI, Arial, sans-serif" font-size="11">
    <rect x="14" y="56" width="40" height="36" rx="8" fill="#1f242c"/><text x="34" y="73" text-anchor="middle" fill="#e5e7eb">277</text><text x="34" y="86" text-anchor="middle" fill="#6b7280">Total</text>
    <rect x="60" y="56" width="40" height="36" rx="8" fill="#1f242c"/><text x="80" y="73" text-anchor="middle" fill="#22c55e">31</text><text x="80" y="86" text-anchor="middle" fill="#6b7280">OK</text>
    <rect x="106" y="56" width="40" height="36" rx="8" fill="#1f242c"/><text x="126" y="73" text-anchor="middle" fill="#ef4444">7</text><text x="126" y="86" text-anchor="middle" fill="#6b7280">Wrong</text>
  </g>
  <g font-family="Segoe UI, Arial, sans-serif" font-size="11" fill="#cbd5e1">
    <circle cx="24" cy="124" r="4" fill="#22c55e"/><text x="36" y="128">Q1 · API versioning…</text>
    <circle cx="24" cy="150" r="4" fill="#ef4444"/><text x="36" y="154">Q5 · secure container…</text>
    <rect x="12" y="166" width="176" height="24" rx="6" fill="#1d2530"/>
    <circle cx="24" cy="178" r="4" fill="#4f86f7"/><text x="36" y="182" fill="#fff">Q105 · on-prem link…</text>
    <circle cx="24" cy="206" r="4" fill="#6b7280"/><text x="36" y="210">Q106 · canary deploy…</text>
  </g>
  <!-- main panel -->
  <text x="232" y="40" font-family="Segoe UI, Arial, sans-serif" font-size="11" fill="#4f86f7">General GCP Architecture · Question 105 of 277</text>
  <text x="232" y="70" font-family="Segoe UI, Arial, sans-serif" font-size="14" fill="#e5e7eb">High throughput to an on-prem service over</text>
  <text x="232" y="90" font-family="Segoe UI, Arial, sans-serif" font-size="14" fill="#e5e7eb">internal IPs, minimal latency — what should you do?</text>
  <g font-family="Segoe UI, Arial, sans-serif" font-size="12">
    <rect x="232" y="108" width="456" height="34" rx="8" fill="#1f242c" stroke="#374151"/><text x="248" y="129" fill="#cbd5e1">A · Use OpenVPN tunnel</text>
    <rect x="232" y="148" width="456" height="34" rx="8" fill="#1f242c" stroke="#374151"/><text x="248" y="169" fill="#cbd5e1">C · Use Cloud VPN</text>
    <rect x="232" y="188" width="456" height="34" rx="8" fill="#10231a" stroke="#22c55e"/><text x="248" y="209" fill="#86efac">D · Dedicated Interconnect ✓ correct</text>
  </g>
  <rect x="232" y="236" width="200" height="58" rx="8" fill="#11151b" stroke="#2b3340"/>
  <text x="244" y="256" font-family="Segoe UI, Arial, sans-serif" font-size="10" fill="#9ca3af">Dedicated Interconnect gives a private 10/100</text>
  <text x="244" y="270" font-family="Segoe UI, Arial, sans-serif" font-size="10" fill="#9ca3af">Gbps link, lowest latency, internal IPs.</text>
  <rect x="588" y="252" width="100" height="32" rx="8" fill="#4f86f7"/>
  <text x="638" y="272" text-anchor="middle" font-family="Segoe UI, Arial, sans-serif" font-size="12" fill="#fff" font-weight="600">Next →</text>
  <text x="460" y="420" text-anchor="middle" font-family="Segoe UI, Arial, sans-serif" font-size="12" fill="#4b5563">placeholder — replace with a real screenshot (docs/screenshots/study-question.png)</text>
</svg>
